# xmcd
#
# Track frame offsets: 
#        150
#        15664
#        35872
#        52583
#        90896
#        127401
#        156481
#        177688
#        214881
#        249053
#        279574
#
# Disc length: 3942 seconds
#
# Revision: 0
# Processed by: cddbd v1.5.2PL0 Copyright (c) Steve Scherf et al.
# Submitted via: ExactAudioCopy v1.0b3
#
DISCID=980f640b
DTITLE=Various Artist - The Best In Dance Vol. 2 - CD 3
DYEAR=1900
DGENRE=
TTITLE0=ATB - Let U Go (Reworked)
TTITLE1=Foggy - Come (Into My Dream) (DJ T. Maxi Mix)
TTITLE2=Hatmaker - On The Roxxx (Single Mix)
TTITLE3=Sunsea - Light The Fire (Original Mix)
TTITLE4=Stonebridge Vs. Ultra Nate - Freak On (Stonebridge Club Mix)
TTITLE5=Sandy Chambers - Give It Time (Original Xtd)
TTITLE6=Platinum Girls - Ignite My Fantasy (Latino Tribal Mix)
TTITLE7=Niels Van Gogh - My Own Religion (Audiocolor)
TTITLE8=Ray Burton Feat. Titus - Barock Me (Club Mix)
TTITLE9=Madagascar 5 - Popcorn (Xtd Version)
TTITLE10=Monsieur Louis - La Soupe Aux Choux (Space Soupe) (Radio Cut)
EXTD=
EXTT0=
EXTT1=
EXTT2=
EXTT3=
EXTT4=
EXTT5=
EXTT6=
EXTT7=
EXTT8=
EXTT9=
EXTT10=
PLAYORDER=
